P3
5 4
255
60 60 60 60 60 60 60 60 60 60 60 60 60 60 60 
60 60 60 60 60 60 60 60 60 60 60 60 60 60 60 
135 206 235 135 206 235 135 206 235 135 206 235 135 206 235 
135 206 235 135 206 235 135 206 235 135 206 235 135 206 235 
