P3
5 4
255
135 206 235 135 206 235 135 206 235 135 206 235 135 206 235 
135 206 235 135 206 235 135 206 235 135 206 235 135 206 235 
60 60 60 60 60 60 60 60 60 60 60 60 60 60 60 
60 60 60 60 60 60 60 60 60 60 60 60 60 60 60 
