P3
# I wonder if this is right
20 15
255
135 206 235 135 206 235 135 206 235 135 206 235 135 206 235 135 206 235 135 206 235 135 206 235 135 206 235 135 206 235 135 206 235 135 206 235 135 206 235 135 206 235 135 206 235 135 206 235 135 206 235 135 206 235 135 206 235 135 206 235
135 206 235 135 206 235 135 206 235 135 206 235 135 206 235 135 206 235 135 206 235 135 206 235 135 206 235 135 206 235 135 206 235 135 206 235 135 206 235 135 206 235 135 206 235 135 206 235 135 206 235 135 206 235 135 206 235 135 206 235
135 206 235 135 206 235 135 206 235 135 206 235 255 0 0 135 206 235 135 206 235 135 206 235 135 206 235 135 206 235 135 206 235 135 206 235 135 206 235 135 206 235 135 206 235 135 206 235 135 206 235 135 206 235 135 206 235 135 206 235
135 206 235 135 206 235 135 206 235 135 206 235 255 0 0 255 0 0 255 0 0 255 0 0 135 206 235 135 206 235 135 206 235 135 206 235 135 206 235 135 206 235 135 206 235 135 206 235 135 206 235 135 206 235 135 206 235 135 206 235
135 206 235 135 206 235 135 206 235 135 206 235 255 0 0 255 0 0 255 0 0 255 0 0 255 0 0 255 0 0 135 206 235 135 206 235 135 206 235 135 206 235 135 206 235 135 206 235 135 206 235 135 206 235 135 206 235 135 206 235
135 206 235 135 206 235 135 206 235 135 206 235 255 0 0 255 0 0 255 0 0 255 0 0 255 0 0 255 0 0 135 206 235 135 206 235 135 206 235 135 206 235 135 206 235 135 206 235 135 206 235 135 206 235 135 206 235 135 206 235
135 206 235 135 206 235 135 206 235 135 206 235 255 0 0 255 0 0 255 0 0 255 0 0 255 0 0 255 0 0 135 206 235 135 206 235 135 206 235 135 206 235 135 206 235 135 206 235 135 206 235 135 206 235 135 206 235 135 206 235
135 206 235 135 206 235 135 206 235 135 206 235 255 0 0 255 0 0 255 0 0 255 0 0 255 0 0 255 0 0 135 206 235 135 206 235 135 206 235 135 206 235 135 206 235 135 206 235 135 206 235 135 206 235 135 206 235 135 206 235
60 60 60 60 60 60 60 60 60 60 60 60 255 0 0 255 0 0 255 0 0 255 0 0 255 0 0 255 0 0 60 60 60 60 60 60 60 60 60 60 60 60 60 60 60 60 60 60 60 60 60 60 60 60 60 60 60 60 60 60
60 60 60 60 60 60 60 60 60 60 60 60 255 0 0 255 0 0 255 0 0 255 0 0 255 0 0 255 0 0 60 60 60 60 60 60 60 60 60 60 60 60 60 60 60 60 60 60 60 60 60 60 60 60 60 60 60 60 60 60
60 60 60 60 60 60 60 60 60 60 60 60 255 0 0 255 0 0 255 0 0 255 0 0 255 0 0 255 0 0 60 60 60 60 60 60 60 60 60 60 60 60 60 60 60 60 60 60 60 60 60 60 60 60 60 60 60 60 60 60
60 60 60 60 60 60 60 60 60 60 60 60 255 0 0 255 0 0 255 0 0 255 0 0 60 60 60 60 60 60 60 60 60 60 60 60 60 60 60 60 60 60 60 60 60 60 60 60 60 60 60 60 60 60 60 60 60 60 60 60
60 60 60 60 60 60 60 60 60 60 60 60 255 0 0 60 60 60 60 60 60 60 60 60 60 60 60 60 60 60 60 60 60 60 60 60 60 60 60 60 60 60 60 60 60 60 60 60 60 60 60 60 60 60 60 60 60 60 60 60
60 60 60 60 60 60 60 60 60 60 60 60 60 60 60 60 60 60 60 60 60 60 60 60 60 60 60 60 60 60 60 60 60 60 60 60 60 60 60 60 60 60 60 60 60 60 60 60 60 60 60 60 60 60 60 60 60 60 60 60
60 60 60 60 60 60 60 60 60 60 60 60 60 60 60 60 60 60 60 60 60 60 60 60 60 60 60 60 60 60 60 60 60 60 60 60 60 60 60 60 60 60 60 60 60 60 60 60 60 60 60 60 60 60 60 60 60 60 60 60
